<svg xmlns="http://www.w3.org/2000/svg" version="1.1" xmlns:xlink="http://www.w3.org/1999/xlink" xmlns:svgjs="http://svgjs.dev/svgjs" width="2000" height="1247" viewBox="0 0 2000 1247"><g transform="matrix(1,0,0,1,-1.2121212121212466,0.504858299595071)"><svg viewBox="0 0 396 247" data-background-color="#dfdad6" preserveAspectRatio="xMidYMid meet" height="1247" width="2000" xmlns="http://www.w3.org/2000/svg" xmlns:xlink="http://www.w3.org/1999/xlink"><g id="tight-bounds" transform="matrix(1,0,0,1,0.2400000000000091,-0.09999999999999432)"><svg viewBox="0 0 395.52 247.2" height="247.2" width="395.52"><g><svg></svg></g><g><svg viewBox="0 0 395.52 247.2" height="247.2" width="395.52"><g transform="matrix(1,0,0,1,150.22706739130433,47.215199999999996)"><svg viewBox="0 0 95.06586521739129 152.7696" height="152.7696" width="95.06586521739129"><g><svg viewBox="0 0 95.06586521739129 152.7696" height="152.7696" width="95.06586521739129"><g><svg viewBox="0 0 95.06586521739129 152.7696" height="152.7696" width="95.06586521739129"><g><svg viewBox="0 0 95.06586521739129 152.7696" height="152.7696" width="95.06586521739129"><g id="textblocktransform"><svg viewBox="0 0 95.06586521739129 152.7696" height="152.7696" width="95.06586521739129" id="textblock"><g><svg viewBox="0 0 95.06586521739129 152.7696" height="152.7696" width="95.06586521739129"><g transform="matrix(1,0,0,1,0,0)"><svg width="95.06586521739129" viewBox="2.15 -35.7 22.900000000000002 36.800000000000004" height="152.7696" data-palette-color="#e33e33"><path d="M13.65-35.7Q18.65-35.7 21.15-32.83 23.65-29.95 24.35-26.03 25.05-22.1 25.05-17.15L25.05-17.15Q25.05-13.15 23.85-8.93 22.65-4.7 20.15-1.8 17.65 1.1 14 1.1L14 1.1Q6.85 1.1 4.5-4.93 2.15-10.95 2.15-17.85L2.15-17.85Q2.15-24.5 3.98-28.5 5.8-32.5 8.43-34.1 11.05-35.7 13.65-35.7L13.65-35.7ZM13.6-11.6Q14.95-11.6 15.6-13.1 16.25-14.6 16.25-16.7L16.25-16.7Q16.25-18.7 15.63-20.2 15-21.7 13.95-21.7L13.95-21.7Q12.7-21.7 12.08-19.98 11.45-18.25 11.45-16.25L11.45-16.25Q11.45-14.2 11.85-12.9 12.25-11.6 13.6-11.6L13.6-11.6Z" opacity="1" transform="matrix(1,0,0,1,0,0)" fill="#e33e33" class="wordmark-text-0" data-fill-palette-color="primary" id="text-0"></path></svg></g></svg></g></svg></g></svg></g></svg></g></svg></g></svg></g><path d="M332.528 41.215L332.528 0 85.328 0 85.328 247.2 332.528 247.2 332.528 205.985 318.751 205.985 318.751 233.423 99.105 233.423 99.105 13.777 318.751 13.777 318.751 41.215Z" fill="#e33e33" stroke="transparent" data-fill-palette-color="tertiary"></path></svg></g><defs></defs></svg><rect width="395.52" height="247.2" fill="none" stroke="none" visibility="hidden"></rect></g></svg></g></svg>